<?xml version="1.0" encoding="utf-8"?>
<!-- Generator: Adobe Illustrator 23.0.1, SVG Export Plug-In . SVG Version: 6.00 Build 0)  -->
<svg version="1.1" id="Layer_1" xmlns="http://www.w3.org/2000/svg" xmlns:xlink="http://www.w3.org/1999/xlink" x="0px" y="0px"
	 viewBox="0 0 105 105" style="enable-background:new 0 0 105 105;" xml:space="preserve">
<style type="text/css">
	.st0{fill:none;stroke:#000000;stroke-width:2;stroke-linecap:round;stroke-linejoin:round;stroke-miterlimit:10;}
</style>
<g>
	<g>
		<g>
			<path class="st0" d="M52.5,101.87c-0.41,0-0.83-0.11-1.2-0.34c-9.26-5.58-18.03-12.07-26.08-19.3l-0.12-0.12
				c-0.07-0.09-0.14-0.19-0.2-0.3c-0.08-0.11-0.15-0.22-0.21-0.33l-0.04-0.09c-0.04-0.12-0.07-0.24-0.09-0.37
				c-0.09-0.29-0.1-0.61-0.02-0.9c0.01-0.13,0.04-0.24,0.08-0.37l0.04-0.1c0.05-0.11,0.12-0.22,0.19-0.33
				c0.05-0.11,0.12-0.21,0.19-0.31l0.12-0.13L37.9,66.14c0.51-0.51,0.78-1.17,0.78-1.88s-0.28-1.36-0.77-1.86
				c-1.03-1.03-2.7-1.03-3.72,0L21.47,75.12c-0.58,0.58-1.43,0.81-2.22,0.6c-0.79-0.21-1.41-0.84-1.63-1.63s0.01-1.64,0.6-2.22
				l16.2-16.2c1.01-1.01,1.03-2.68,0.02-3.7s-2.66-1.05-3.7-0.05L15.51,67.14c-0.58,0.58-1.43,0.81-2.22,0.6
				c-0.79-0.21-1.41-0.84-1.63-1.63c-0.21-0.79,0.01-1.64,0.6-2.22l17.57-17.57c0.96-1.03,0.94-2.66-0.06-3.66
				c-1.04-0.99-2.68-0.99-3.73,0.01l-0.1,0.08l-5.65,5.65c0,0.01-0.03,0.05-0.07,0.08l-0.1,0.09l-9.33,9.32
				c-0.58,0.58-1.43,0.81-2.22,0.6c-0.8-0.21-1.41-0.84-1.63-1.63c-0.21-0.8,0.02-1.64,0.6-2.22l9.49-9.49
				c0.97-1.03,0.93-2.68-0.1-3.67c-1.03-0.99-2.68-0.98-3.69,0.03l-5.8,5.8c-0.09,0.09-0.17,0.13-0.21,0.15
				c-0.07,0.07-0.2,0.15-0.34,0.22c-0.11,0.07-0.26,0.13-0.41,0.17c0.01,0-0.07,0.05-0.19,0.07L6.2,47.91c-0.05,0-0.09,0-0.14,0.01
				c-0.05,0.01-0.1,0.02-0.15,0.03l-0.09,0.01c-0.12,0-0.21-0.03-0.26-0.04c-0.26-0.03-0.53-0.11-0.8-0.24
				c-0.12-0.07-0.24-0.14-0.34-0.22c-0.05-0.03-0.11-0.07-0.16-0.11l-0.07-0.07c-0.09-0.09-0.13-0.17-0.16-0.21
				c-0.16-0.19-0.3-0.45-0.39-0.74c-0.01,0.01-0.05-0.08-0.07-0.2C0.82,33.12,3.45,21.8,10.78,15.08c6.15-5.42,14.29-7.7,22.34-6.26
				c7.93,1.42,14.94,6.03,19.38,12.73c4.44-6.69,11.45-11.31,19.38-12.73c8.06-1.43,16.2,0.84,22.34,6.26l0.01,0.01
				c7.34,6.72,9.96,18.03,7.21,31.04l-0.02,0.08c-0.02,0.06-0.04,0.12-0.07,0.17c-0.03,0.1-0.07,0.19-0.12,0.29
				c-0.08,0.15-0.17,0.3-0.28,0.42c-0.03,0.05-0.07,0.12-0.14,0.19l-0.14,0.11c-0.14,0.11-0.28,0.21-0.43,0.29
				c-0.06,0.03-0.12,0.07-0.18,0.1c-0.31,0.13-0.59,0.18-0.87,0.18h-0.06h-0.01c-0.14-0.01-0.28-0.02-0.41-0.05
				c-0.12-0.03-0.2-0.07-0.25-0.09c-0.24-0.08-0.5-0.22-0.74-0.41c0,0.01-0.09-0.04-0.16-0.13l-5.81-5.81
				c-1.04-0.99-2.68-0.99-3.73,0.01c-0.99,0.99-1.03,2.58-0.09,3.62l0.05,0.06c0.02,0.02,0.04,0.04,0.05,0.06l9.42,9.4
				c0.58,0.58,0.81,1.43,0.6,2.22c-0.21,0.8-0.84,1.42-1.63,1.63c-0.79,0.21-1.64-0.01-2.22-0.6l-9.47-9.46
				c-0.06-0.05-0.14-0.14-0.22-0.23l-5.56-5.54c-1.03-1.03-2.69-1.03-3.72,0c-0.49,0.49-0.77,1.16-0.77,1.86
				c0,0.68,0.26,1.33,0.74,1.82l0.04,0.04l2.38,2.39l15.13,15.12c0.89,0.9,0.89,2.36-0.01,3.25s-2.35,0.89-3.25,0.01l-15.2-15.19
				c-0.66-0.66-1.64-0.92-2.54-0.68c-0.91,0.24-1.62,0.95-1.86,1.86c-0.24,0.91,0.02,1.88,0.68,2.54l16.2,16.2
				c0.89,0.89,0.89,2.36,0,3.26s-2.36,0.9-3.26,0L70.81,62.42c-1.03-1.03-2.7-1.03-3.72,0c-0.5,0.5-0.77,1.16-0.77,1.86
				c0,0.7,0.28,1.36,0.77,1.86l0.08,0.09l12.79,12.8c0.07,0.1,0.14,0.2,0.2,0.31c0.07,0.11,0.14,0.22,0.19,0.33l0.04,0.1
				c0.04,0.13,0.07,0.26,0.08,0.39c0.03,0.13,0.05,0.26,0.05,0.38l0.01,0.07l-0.01,0.07c-0.04,0.22-0.09,0.45-0.14,0.66L80.3,81.5
				c-0.06,0.12-0.13,0.22-0.21,0.33c-0.06,0.11-0.13,0.2-0.2,0.29l-0.09,0.1c-0.01,0.01-0.01,0.01-0.02,0.02l0,0l-0.01,0.01
				c-8.05,7.23-16.82,13.72-26.08,19.3C53.33,101.76,52.92,101.87,52.5,101.87z"/>
		</g>
	</g>
</g>
</svg>
