<?xml version="1.0" encoding="utf-8"?>
<!-- Generator: Adobe Illustrator 23.0.1, SVG Export Plug-In . SVG Version: 6.00 Build 0)  -->
<svg version="1.1" id="Layer_1" xmlns="http://www.w3.org/2000/svg" xmlns:xlink="http://www.w3.org/1999/xlink" x="0px" y="0px"
	 viewBox="0 0 105 105" style="enable-background:new 0 0 105 105;" xml:space="preserve">
<style type="text/css">
	.st0{fill:none;stroke:#000000;stroke-width:2;stroke-linecap:round;stroke-linejoin:round;stroke-miterlimit:10;}
</style>
<g>
	<g>
		<path class="st0" d="M73.99,12.97l-0.01-9.48c0-0.55-0.45-0.99-0.99-0.99L31.67,2.59c-0.55,0-0.99,0.44-0.99,0.99l-0.01,9.49
			l-5.35,20.15v68.29c0,0.55,0.44,0.99,0.99,0.99h52.36c0.55,0,0.99-0.44,0.99-0.99V32.85L73.99,12.97z"/>
	</g>
	<path class="st0" d="M64.23,79.4c-0.4,2.56-2.44,4.7-4.97,5.2c-1.15,0.22-2.19,0.16-3.23-0.18c-1.96-0.65-4.12-0.65-6.09,0
		c-1.04,0.34-2.13,0.41-3.24,0.18c-2.49-0.5-4.47-2.51-4.94-5c-0.41-2.21,0.33-4.41,1.99-5.89c1.37-1.23,2.46-2.59,3.22-4.04
		c1.1-2.07,3.23-3.37,5.57-3.39c2.26,0,4.28,1.16,5.44,3.12c0.85,1.44,2.09,2.74,3.59,3.77C63.59,74.56,64.61,76.95,64.23,79.4z"/>
	<path class="st0" d="M54.15,58.25c0.45-2.71,2.62-4.62,4.84-4.26c1.05,0.17,1.96,0.83,2.58,1.86c0.64,1.07,0.86,2.39,0.64,3.73
		c-0.22,1.33-0.85,2.5-1.78,3.31c-0.9,0.79-1.98,1.13-3.06,0.96c-1.06-0.18-1.98-0.85-2.6-1.88C54.16,60.89,53.93,59.57,54.15,58.25
		z"/>
	<path class="st0" d="M69.46,68.24c-0.47,1.14-1.29,2.07-2.27,2.6c-1,0.53-2.03,0.59-2.93,0.23c-1.9-0.78-2.67-3.32-1.72-5.66
		c0.47-1.14,1.28-2.06,2.27-2.6c0.96-0.51,2.01-0.59,2.93-0.22c0.92,0.37,1.58,1.13,1.92,2.21C70,65.88,69.93,67.1,69.46,68.24z"/>
	<g>
		<path class="st0" d="M45.95,53.99c2.22-0.36,4.39,1.55,4.84,4.26c0.22,1.33-0.01,2.64-0.62,3.7c-0.61,1.04-1.54,1.71-2.59,1.88
			c-1.07,0.17-2.15-0.16-3.05-0.95c-0.92-0.81-1.55-1.98-1.78-3.3C42.3,56.86,43.75,54.35,45.95,53.99z"/>
	</g>
	<path class="st0" d="M40.68,71.04c-0.88,0.36-1.93,0.3-2.9-0.23c-0.98-0.53-1.79-1.44-2.26-2.56c-0.46-1.14-0.53-2.35-0.2-3.42
		c0.33-1.04,1-1.82,1.91-2.19c0.9-0.37,1.93-0.3,2.9,0.22c0.99,0.53,1.79,1.44,2.26,2.57C43.33,67.75,42.57,70.27,40.68,71.04z"/>
	<line class="st0" x1="79.67" y1="33.08" x2="25.36" y2="33.08"/>
	<line class="st0" x1="74.03" y1="13.11" x2="30.66" y2="13.11"/>
</g>
</svg>
