<?xml version="1.0" encoding="utf-8"?>
<!-- Generator: Adobe Illustrator 23.0.1, SVG Export Plug-In . SVG Version: 6.00 Build 0)  -->
<svg version="1.1" id="Layer_1" xmlns="http://www.w3.org/2000/svg" xmlns:xlink="http://www.w3.org/1999/xlink" x="0px" y="0px"
	 viewBox="0 0 105 105" style="enable-background:new 0 0 105 105;" xml:space="preserve">
<style type="text/css">
	.st0{fill:none;stroke:#000000;stroke-width:2;stroke-linecap:round;stroke-linejoin:round;stroke-miterlimit:10;}
</style>
<g>
	<path class="st0" d="M52.5,102.5c-4.27-3.74-38.08-34.3-38.08-61.92C14.42,19.58,31.51,2.5,52.5,2.5s38.08,17.08,38.08,38.08
		C90.58,68.2,56.77,98.76,52.5,102.5z"/>
	<g>
		<path class="st0" d="M52.5,68.32c-15.2,0-27.56-12.36-27.56-27.56S37.3,13.19,52.5,13.19s27.56,12.36,27.56,27.56
			C80.04,55.93,67.68,68.3,52.5,68.32z"/>
	</g>
	<path class="st0" d="M62.83,55.23c-0.76,1.63-2.42,2.62-4.24,2.5c-1.14-0.03-2.24-0.28-3.28-0.75c-0.87-0.42-1.81-0.65-2.84-0.69
		c-0.97,0.04-1.91,0.27-2.77,0.69c-1.04,0.47-2.14,0.73-3.31,0.76c-1.78,0.11-3.45-0.87-4.19-2.46c-0.95-2.51-0.48-5.34,1.27-7.43
		c0.7-0.92,1.32-1.9,1.84-2.92c1.56-2.8,3.33-5.97,7.2-5.97s5.63,3.17,7.19,5.96c0.53,1.03,1.15,2.01,1.87,2.95
		C63.29,49.94,63.77,52.77,62.83,55.23z"/>
	<path class="st0" d="M54.97,28.06c0.29-1.67,1.08-3.14,2.2-4.14c1.09-0.96,2.37-1.38,3.59-1.17c1.36,0.27,2.51,1.18,3.11,2.45
		c0.67,1.39,0.89,2.98,0.6,4.5c-0.53,3.06-2.76,5.36-5.17,5.36c-0.21,0-0.42-0.02-0.63-0.05c-1.35-0.27-2.51-1.18-3.1-2.43
		C54.89,31.18,54.68,29.59,54.97,28.06z"/>
	<path class="st0" d="M71.44,41.74c-0.34,1.14-1.07,2.12-2.06,2.78c-0.62,0.42-1.35,0.64-2.1,0.65c-0.35,0-0.71-0.05-0.98-0.14
		c-2.22-0.87-3.34-3.39-2.5-5.62l0.03-0.08c0.49-1.98,2.29-3.33,4.26-3.33c0.31,0,0.62,0.03,0.93,0.1
		C71.2,36.97,72.3,39.47,71.44,41.74z"/>
	<path class="st0" d="M41.02,25.09c0.61-1.28,1.8-2.22,3.16-2.5c0.22-0.04,0.44-0.05,0.66-0.05c1.06,0,2.11,0.43,3.04,1.25
		c1.17,1.03,1.97,2.54,2.27,4.26c0.3,1.55,0.07,3.19-0.62,4.63c-0.61,1.27-1.79,2.21-3.17,2.49c-0.21,0.04-0.43,0.05-0.65,0.05
		c-2.49,0-4.77-2.36-5.31-5.51C40.11,28.15,40.33,26.52,41.02,25.09z"/>
	<path class="st0" d="M38.75,45c-0.33,0.11-0.68,0.16-1.03,0.16c-0.75-0.01-1.48-0.23-2.1-0.65c-0.98-0.65-1.71-1.64-2.07-2.83
		c-0.84-2.21,0.25-4.71,2.44-5.6c2.3-0.5,4.62,0.93,5.18,3.23l0.03,0.08C42.04,41.63,40.92,44.15,38.75,45z"/>
</g>
</svg>
