<?xml version="1.0" encoding="utf-8"?>
<!-- Generator: Adobe Illustrator 23.0.1, SVG Export Plug-In . SVG Version: 6.00 Build 0)  -->
<svg version="1.1" id="Layer_1" xmlns="http://www.w3.org/2000/svg" xmlns:xlink="http://www.w3.org/1999/xlink" x="0px" y="0px"
	 viewBox="0 0 105 105" style="enable-background:new 0 0 105 105;" xml:space="preserve">
<style type="text/css">
	.st0{fill:none;stroke:#000000;stroke-width:2;stroke-linecap:round;stroke-linejoin:round;stroke-miterlimit:10;}
</style>
<g>
	<path class="st0" d="M61.42,37.71v10.26c0,1.07-0.85,1.93-1.9,1.93H14.73c-1.05,0-1.9-0.86-1.9-1.93V37.71
		c0-1.07,0.85-1.93,1.9-1.93h44.79C60.57,35.78,61.42,36.65,61.42,37.71z"/>
	<line class="st0" x1="53.21" y1="38.73" x2="53.21" y2="46.26"/>
	<line class="st0" x1="46.77" y1="38.73" x2="46.77" y2="46.26"/>
	<line class="st0" x1="40.32" y1="38.73" x2="40.32" y2="46.26"/>
	<line class="st0" x1="33.88" y1="38.73" x2="33.88" y2="46.26"/>
	<line class="st0" x1="27.43" y1="38.73" x2="27.43" y2="46.26"/>
	<line class="st0" x1="20.99" y1="38.73" x2="20.99" y2="46.26"/>
	<rect x="18.89" y="49.91" class="st0" width="36.36" height="7.33"/>
	<path class="st0" d="M64.69,61.71v36.31c0,2.47-2,4.48-4.48,4.48H14.15c-2.47,0-4.48-2-4.48-4.48V61.71c0-2.47,2-4.48,4.48-4.48
		h46.07C62.68,57.23,64.69,59.24,64.69,61.71z"/>
	<path class="st0" d="M98.47,96.34v5.63c0,0.29-0.24,0.53-0.53,0.53H77.79c-0.29,0-0.53-0.24-0.53-0.53v-5.63
		c0-0.29,0.24-0.53,0.53-0.53h20.15C98.23,95.81,98.47,96.05,98.47,96.34z"/>
	<rect x="81.73" y="89.7" class="st0" width="12.16" height="6.11"/>
	<path class="st0" d="M97.87,29.93v59.23c0,0.29-0.24,0.53-0.53,0.53H78.4c-0.29,0-0.53-0.24-0.53-0.53V29.93
		c0-0.29,0.24-0.53,0.53-0.53h18.93C97.63,29.4,97.87,29.64,97.87,29.93z"/>
	<path class="st0" d="M94.9,23.32v6.08H80.83v-6.08c0-0.29,0.24-0.53,0.53-0.53h13C94.66,22.79,94.9,23.03,94.9,23.32z"/>
	<line class="st0" x1="87.86" y1="2.5" x2="87.87" y2="22.79"/>
	<polyline class="st0" points="84.54,77.1 77.86,77.1 77.86,69.12 84.54,69.12 84.54,69.15 77.86,69.15 77.86,61.16 84.54,61.16 
		84.54,61.19 77.86,61.19 77.86,53.21 84.54,53.21 84.54,53.24 77.86,53.24 77.86,45.26 84.54,45.26 84.54,45.29 77.86,45.29 
		77.86,37.31 84.54,37.31 	"/>
	<g>
		<path class="st0" d="M46.15,91.17c-0.67,1.43-2.12,2.3-3.72,2.19c-1-0.03-1.97-0.25-2.88-0.66c-0.77-0.36-1.59-0.57-2.49-0.6
			c-0.85,0.04-1.67,0.24-2.43,0.6c-0.91,0.41-1.88,0.64-2.9,0.67c-1.56,0.1-3.02-0.77-3.67-2.16c-0.84-2.2-0.42-4.68,1.11-6.51
			c0.62-0.8,1.16-1.67,1.62-2.56c1.37-2.45,2.92-5.24,6.31-5.24s4.94,2.78,6.31,5.22c0.47,0.91,1.01,1.77,1.64,2.59
			C46.55,86.53,46.97,89.01,46.15,91.17z"/>
		<g>
			<path class="st0" d="M39.41,69.78c0.18-1.06,0.69-2,1.41-2.64c0.7-0.61,1.51-0.88,2.29-0.74c0.86,0.17,1.6,0.75,1.98,1.56
				c0.42,0.88,0.57,1.9,0.38,2.87c-0.34,1.95-1.76,3.42-3.3,3.42c-0.14,0-0.27-0.01-0.4-0.03c-0.86-0.17-1.6-0.75-1.98-1.55
				C39.36,71.77,39.22,70.76,39.41,69.78z"/>
			<path class="st0" d="M34.4,72.74c-0.38,0.75-1.12,1.3-1.98,1.47c-0.13,0.02-0.27,0.03-0.4,0.03c-1.54,0-2.96-1.39-3.3-3.24
				c-0.18-0.92-0.04-1.88,0.38-2.71c0.38-0.76,1.12-1.31,1.98-1.48c0.78-0.13,1.59,0.12,2.29,0.7c0.72,0.61,1.22,1.49,1.41,2.5
				C34.97,70.94,34.84,71.91,34.4,72.74z"/>
		</g>
		<g>
			<path class="st0" d="M53.07,77.78c-0.26,0.86-0.82,1.6-1.59,2.1c-0.48,0.31-1.04,0.48-1.62,0.49c-0.27,0-0.55-0.04-0.76-0.1
				c-1.71-0.66-2.57-2.56-1.93-4.25l0.02-0.06c0.38-1.5,1.77-2.51,3.28-2.51c0.24,0,0.48,0.02,0.72,0.08
				C52.88,74.18,53.73,76.08,53.07,77.78z"/>
		</g>
		<path class="st0" d="M25.22,80.63c-0.25,0.08-0.52,0.12-0.78,0.12c-0.57-0.01-1.12-0.17-1.59-0.49c-0.74-0.49-1.3-1.24-1.57-2.14
			c-0.63-1.68,0.19-3.57,1.85-4.24c1.75-0.38,3.5,0.7,3.93,2.44l0.02,0.06C27.71,78.08,26.86,79.99,25.22,80.63z"/>
	</g>
</g>
</svg>
