<?xml version="1.0" encoding="utf-8"?>
<!-- Generator: Adobe Illustrator 23.0.1, SVG Export Plug-In . SVG Version: 6.00 Build 0)  -->
<svg version="1.1" id="Layer_1" xmlns="http://www.w3.org/2000/svg" xmlns:xlink="http://www.w3.org/1999/xlink" x="0px" y="0px"
	 viewBox="0 0 105 105" style="enable-background:new 0 0 105 105;" xml:space="preserve">
<style type="text/css">
	.st0{fill:none;stroke:#000000;stroke-width:2;stroke-linecap:round;stroke-linejoin:round;stroke-miterlimit:10;}
</style>
<g>
	<g>
		<g>
			<path class="st0" d="M12.81,72.84c16.35,13.77,36.7,25.92,37.63,26.4c1.31,0.65,2.94,0.65,4.26-0.01
				c0.98-0.51,21.89-12.79,37.92-26.28 M54.32,64.92h-3.93c-1.41,0-2.55-1.23-2.55-2.74v-4.3c0-1.51,1.15-2.74,2.55-2.74h3.93
				c1.41,0,2.55,1.23,2.55,2.74v4.3C56.87,63.69,55.73,64.92,54.32,64.92z"/>
		</g>
	</g>
	<g>
		<path class="st0" d="M98.5,60.65l1.6-5.02c2.78-8.73,1.98-18.2-2.17-25.97c-0.32-0.6-0.66-1.18-1-1.74
			c-3.38-5.45-9.77-11.94-21.05-11.94c-11.03,0-18.52,5.92-22.86,10.89c-0.26,0.29-0.76,0.29-1.02,0
			c-4.35-4.98-11.84-10.9-22.87-10.9c-11.28,0-17.67,6.49-21.05,11.94c-0.35,0.56-0.68,1.14-1,1.74C2.91,37.43,2.12,46.9,4.9,55.63
			l1.6,5.02"/>
	</g>
	<path class="st0" d="M2.5,72.7l49.75-38.25L71.56,49.2c2.61,2,6.38,0.13,6.38-3.15v-9.54h8.92V58.5c0,1.51,0.7,2.93,1.9,3.84
		l13.74,10.5"/>
</g>
</svg>
