<?xml version="1.0" encoding="utf-8"?>
<!-- Generator: Adobe Illustrator 23.0.1, SVG Export Plug-In . SVG Version: 6.00 Build 0)  -->
<svg version="1.1" id="Layer_1" xmlns="http://www.w3.org/2000/svg" xmlns:xlink="http://www.w3.org/1999/xlink" x="0px" y="0px"
	 viewBox="0 0 105 105" style="enable-background:new 0 0 105 105;" xml:space="preserve">
<style type="text/css">
	.st0{fill:none;stroke:#000000;stroke-width:2;stroke-linecap:round;stroke-linejoin:round;stroke-miterlimit:10;}
</style>
<g>
	<path class="st0" d="M87.28,14.89v86.95c0,0.37-0.3,0.67-0.67,0.67H18.38c-0.37,0-0.67-0.3-0.67-0.67V14.89
		c0-0.37,0.3-0.67,0.67-0.67h18.39l0,7.68l31.29-0.06v-7.62h18.56C86.99,14.22,87.28,14.52,87.28,14.89z"/>
	<path class="st0" d="M36.78,14.24l0,7.68l31.29-0.06c0,0,0-7.62,0-7.62h10.86V93.4c0,0.37-0.3,0.67-0.67,0.67H26.81
		c-0.37,0-0.67-0.3-0.67-0.67V14.24H36.78z"/>
	<g>
		<path class="st0" d="M68.06,11.64v10.23h-31.3V11.64c0-0.56,0.45-1.01,1-1.01h7.36c-0.01-0.11-0.01-0.21-0.01-0.32
			c0-4.31,3.34-7.81,7.46-7.81c4.12,0,7.46,3.5,7.46,7.81c0,0.11,0,0.21-0.01,0.32h7.04C67.62,10.63,68.06,11.08,68.06,11.64z"/>
	</g>
	<path class="st0" d="M54.93,10.88c0,1.37-1.11,2.47-2.47,2.47c-1.37,0-2.47-1.11-2.47-2.47c0-1.37,1.11-2.47,2.47-2.47
		C53.83,8.41,54.93,9.51,54.93,10.88z"/>
	<path class="st0" d="M69.57,39.52c0.61,0.93,0.97,2.06,0.97,3.27c0,3.19-2.48,5.77-5.53,5.77c-2.6,0-4.77-1.86-5.37-4.37H45.3
		c-0.58,2.54-2.76,4.43-5.38,4.43c-3.06,0-5.54-2.58-5.54-5.77c0-1.21,0.36-2.34,0.97-3.27c-0.61-0.93-0.97-2.05-0.97-3.26
		c0-3.19,2.48-5.78,5.54-5.78c2.54,0,4.68,1.79,5.33,4.23h14.4c0.63-2.47,2.78-4.3,5.35-4.3c3.06,0,5.53,2.59,5.53,5.78
		C70.54,37.47,70.18,38.59,69.57,39.52z"/>
	<line class="st0" x1="35.42" y1="62.3" x2="69.63" y2="62.3"/>
	<line class="st0" x1="69.63" y1="72.19" x2="35.42" y2="72.19"/>
	<line class="st0" x1="69.61" y1="82.08" x2="35.39" y2="82.08"/>
</g>
</svg>
