<?xml version="1.0" encoding="utf-8"?>
<!-- Generator: Adobe Illustrator 23.0.1, SVG Export Plug-In . SVG Version: 6.00 Build 0)  -->
<svg version="1.1" id="Layer_1" xmlns="http://www.w3.org/2000/svg" xmlns:xlink="http://www.w3.org/1999/xlink" x="0px" y="0px"
	 viewBox="0 0 105 105" style="enable-background:new 0 0 105 105;" xml:space="preserve">
<style type="text/css">
	.st0{fill:none;stroke:#000000;stroke-width:2;stroke-linecap:round;stroke-linejoin:round;stroke-miterlimit:10;}
</style>
<g>
	<path class="st0" d="M8.91,67.92c-1.19,0-2.16-0.97-2.16-2.16c0-1.19,0.97-2.16,2.16-2.16s2.16,0.97,2.16,2.16
		C11.07,66.95,10.1,67.92,8.91,67.92z"/>
	<path class="st0" d="M101.51,81.21c-0.41,0.48-0.93,0.84-1.51,1.09c-5.3,2.23-39.61,17.46-39.7,17.49
		c-2.89,1.32-6.21,1.97-9.39,1.97c-4.01,0-8.21-1.21-11.64-3.28l-11.02-6.58c-2.09-1.25-7.76-2.08-12.85-2.69V63.73h18.76
		c1.71,0,3.53,0.51,5.01,1.35l11.17,6.06c1.05,0.59,2.24,0.91,3.45,0.91h13.58c2.36,0,4.27,1.91,4.27,4.27v0
		c0,2.36-1.91,4.27-4.27,4.27l-21.47,0c-1.18,0-2.13,0.96-2.13,2.13v0c0,1.18,0.96,2.13,2.13,2.13h21.37c1.47,0,2.93-0.36,4.24-1.05
		c1.13-0.39,21.84-7.48,25.62-8.78c0.49-0.17,1.01-0.29,1.53-0.29c1.08,0,2,0.39,2.75,1.16c0.6,0.62,1.01,1.42,1.11,2.28
		C102.64,79.28,102.29,80.29,101.51,81.21z"/>
	<path class="st0" d="M49.4,20.05c1.78-2.71,5.07-4.2,9.28-4.2c0.13,0,0.26,0,0.39-0.01c0.11,0,0.22-0.01,0.33-0.01
		c4.66,0,11.69,8.13,13.32,12.28l0.54,1.38l0.72-1.29c4.34-7.85,9.47-12.36,14.06-12.36c0.11,0,0.22,0,0.33,0.01
		c0.13,0,0.26,0.01,0.4,0.01c4.2,0,7.5,1.49,9.28,4.2c2.03,3.09,1.95,7.54-0.23,12.53c-4.19,9.43-12.28,18.35-24.07,26.51
		c-0.01,0.01-0.01,0.01-0.02,0.01c-0.01-0.01-0.01-0.01-0.02-0.01c-11.79-8.16-19.89-17.08-24.07-26.51
		C47.46,27.59,47.37,23.14,49.4,20.05z"/>
	<path class="st0" d="M37.61,47.96c0.44-0.69,1.29-1.08,2.39-1.08h0.01l0.22-0.01c1.09,0,3.11,2.3,3.58,3.53l0.58,1.53l0.77-1.44
		c1.21-2.27,2.65-3.63,3.83-3.63l0.22,0.01h0.01c1.1,0,1.95,0.39,2.39,1.08c0.51,0.82,0.48,2.04-0.11,3.44
		c-1.2,2.8-3.51,5.47-6.87,7.94c-3.36-2.46-5.67-5.13-6.87-7.94C37.13,50,37.09,48.77,37.61,47.96z"/>
	<path class="st0" d="M56.08,36.79c3.07,5.02,8.91,10.86,17.85,17.86"/>
	<path class="st0" d="M15.4,61.56v29.55c0,1.21-0.98,2.19-2.19,2.19H2.54V59.36h10.67C14.42,59.36,15.4,60.35,15.4,61.56z"/>
</g>
</svg>
