<?xml version="1.0" encoding="utf-8"?>
<!-- Generator: Adobe Illustrator 23.0.1, SVG Export Plug-In . SVG Version: 6.00 Build 0)  -->
<svg version="1.1" id="Layer_1" xmlns="http://www.w3.org/2000/svg" xmlns:xlink="http://www.w3.org/1999/xlink" x="0px" y="0px"
	 viewBox="0 0 105 105" style="enable-background:new 0 0 105 105;" xml:space="preserve">
<style type="text/css">
	.st0{fill:none;stroke:#000000;stroke-width:2;stroke-linecap:round;stroke-linejoin:round;stroke-miterlimit:10;}
</style>
<g>
	<path class="st0" d="M12.78,43.91L55,14.93l42.18,29.06c2.31,1.59,5.48,0.92,6.95-1.47v0c1.35-2.21,0.75-5.08-1.37-6.56L57.35,4
		c-1.47-1.03-3.43-1.04-4.9-0.01L7.04,35.56c-2.22,1.53-2.86,4.53-1.45,6.82l0,0C7.11,44.86,10.39,45.55,12.78,43.91z"/>
	<path class="st0" d="M94.78,42.33L55,14.93L15.01,42.37v55.61c0,2.77,2.24,5.01,5.01,5.01h69.74c2.77,0,5.01-2.24,5.01-5.01V42.33
		L94.78,42.33z"/>
	<path class="st0" d="M86.54,8.18v16.36L69.86,12.8V8.18c0-2.74,2.22-4.96,4.96-4.96h6.76C84.32,3.22,86.54,5.44,86.54,8.18z"/>
	<path class="st0" d="M64.44,77.2c-0.7,1.5-2.22,2.4-3.88,2.29c-1.04-0.03-2.06-0.26-3.01-0.69c-0.8-0.38-1.66-0.59-2.6-0.63
		c-0.89,0.04-1.75,0.25-2.54,0.63c-0.95,0.43-1.96,0.67-3.03,0.7c-1.63,0.11-3.16-0.8-3.84-2.25c-0.87-2.3-0.44-4.89,1.16-6.81
		c0.64-0.84,1.21-1.74,1.69-2.67c1.43-2.56,3.05-5.47,6.6-5.47s5.16,2.9,6.59,5.46c0.49,0.95,1.05,1.85,1.71,2.71
		C64.86,72.35,65.3,74.95,64.44,77.2z"/>
	<path class="st0" d="M57.92,53.82c0.26-1.5,0.97-2.83,1.99-3.74c0.98-0.87,2.14-1.24,3.24-1.05c1.22,0.25,2.27,1.07,2.81,2.21
		c0.6,1.25,0.8,2.69,0.54,4.06c-0.48,2.76-2.49,4.84-4.67,4.84c-0.19,0-0.38-0.01-0.57-0.05c-1.22-0.25-2.26-1.07-2.79-2.19
		C57.85,56.64,57.66,55.2,57.92,53.82z"/>
	<path class="st0" d="M73.6,65.35c-0.33,1.08-1.04,2.01-2,2.63c-0.6,0.39-1.31,0.61-2.03,0.61c-0.34,0-0.69-0.05-0.95-0.13
		c-2.15-0.82-3.23-3.22-2.42-5.34l0.03-0.08c0.48-1.88,2.22-3.16,4.13-3.16c0.3,0,0.6,0.03,0.9,0.09
		C73.37,60.83,74.42,63.21,73.6,65.35z"/>
	<path class="st0" d="M46,51.25c0.53-1.12,1.57-1.94,2.76-2.18c0.19-0.03,0.39-0.05,0.58-0.05c0.92,0,1.85,0.37,2.66,1.09
		c1.02,0.9,1.72,2.22,1.98,3.72c0.26,1.36,0.06,2.79-0.54,4.04c-0.53,1.11-1.56,1.93-2.77,2.17c-0.18,0.03-0.37,0.05-0.56,0.05
		c-2.17,0-4.16-2.06-4.64-4.82C45.21,53.93,45.4,52.5,46,51.25z"/>
	<path class="st0" d="M42.56,68.45c-0.31,0.1-0.65,0.15-0.98,0.15c-0.72-0.01-1.41-0.22-2-0.62c-0.94-0.62-1.63-1.56-1.97-2.69
		c-0.8-2.11,0.24-4.48,2.33-5.33c2.19-0.48,4.39,0.88,4.94,3.07l0.03,0.08C45.69,65.24,44.62,67.64,42.56,68.45z"/>
	<path class="st0" d="M55.19,93.19c-0.19,0.06-0.39,0.06-0.58,0c-21.89-7.26-29.65-23.77-29.65-35.7c0-10.96,6.78-19.55,15.42-19.55
		c5.3,0.02,10.3,2.08,14.09,5.79l0.43,0.42l0.43-0.42c3.79-3.71,8.79-5.76,14.08-5.79c8.65,0,15.43,8.59,15.43,19.55
		C84.84,69.42,77.07,85.93,55.19,93.19z"/>
</g>
</svg>
