<?xml version="1.0" encoding="utf-8"?>
<!-- Generator: Adobe Illustrator 23.0.1, SVG Export Plug-In . SVG Version: 6.00 Build 0)  -->
<svg version="1.1" id="Layer_1" xmlns="http://www.w3.org/2000/svg" xmlns:xlink="http://www.w3.org/1999/xlink" x="0px" y="0px"
	 viewBox="0 0 105 105" style="enable-background:new 0 0 105 105;" xml:space="preserve">
<style type="text/css">
	.st0{fill:none;stroke:#000000;stroke-width:2;stroke-linecap:round;stroke-linejoin:round;stroke-miterlimit:10;}
</style>
<g>
	<path class="st0" d="M102.5,98.73c0,1.99-1.64,3.62-3.64,3.62H57.91c-2.01,0-3.64-1.62-3.64-3.62V66.42c0-1.99,1.64-3.62,3.64-3.62
		h40.95c0.01,0,0.01,0,0.03,0c0.97,0,1.87,0.37,2.55,1.05c0.68,0.68,1.06,1.6,1.06,2.57V98.73z"/>
	<g>
		<path class="st0" d="M24.49,55.7c0.01,0,0.02,0,0.03,0c1.82,0,3.54,0.71,4.84,2c1.31,1.31,2.03,3.05,2.03,4.91
			c0,3.82-3.1,6.92-6.91,6.92s-6.91-3.11-6.91-6.92C17.58,58.79,20.68,55.7,24.49,55.7z"/>
	</g>
	<path class="st0" d="M36.69,52.53c1.6,0,2.9,1.3,2.9,2.88c0,1.6-1.3,2.9-2.9,2.9c-1.59,0-2.88-1.3-2.88-2.9
		C33.8,53.83,35.09,52.53,36.69,52.53z"/>
	<path class="st0" d="M12.92,52.53c1.6,0,2.9,1.3,2.9,2.88c0,1.6-1.3,2.9-2.9,2.9c-1.59,0-2.88-1.3-2.88-2.9
		C10.04,53.83,11.33,52.53,12.92,52.53z"/>
	<path class="st0" d="M19.47,43.51c0.07-0.01,0.14-0.01,0.21-0.01c1.72,0,3.37,2,3.67,4.51c0.15,1.35-0.09,2.64-0.67,3.64
		c-0.52,0.9-1.27,1.44-2.08,1.51c-1.78,0.18-3.56-1.9-3.87-4.51C16.43,46.03,17.69,43.67,19.47,43.51z"/>
	<path class="st0" d="M26.47,48.02c0.3-2.61,2.03-4.68,3.73-4.51c1.71,0.16,2.93,2.52,2.65,5.13c-0.3,2.62-2.02,4.7-3.73,4.52
		c-0.73-0.07-1.26-0.52-1.58-0.9C26.68,51.26,26.28,49.68,26.47,48.02z"/>
	<g>
		<path class="st0" d="M78.06,81.69c0.01,0,0.02,0,0.03,0c1.82,0,3.54,0.71,4.84,2c1.31,1.31,2.03,3.05,2.03,4.91
			c0,3.82-3.1,6.92-6.91,6.92c-3.81,0-6.91-3.11-6.91-6.92C71.15,84.78,74.25,81.69,78.06,81.69z"/>
	</g>
	<path class="st0" d="M90.25,78.52c1.6,0,2.9,1.3,2.9,2.88c0,1.6-1.3,2.9-2.9,2.9c-1.59,0-2.88-1.3-2.88-2.9
		C87.37,79.82,88.66,78.52,90.25,78.52z"/>
	<path class="st0" d="M66.49,78.52c1.6,0,2.9,1.3,2.9,2.88c0,1.6-1.3,2.9-2.9,2.9c-1.59,0-2.88-1.3-2.88-2.9
		C63.6,79.82,64.9,78.52,66.49,78.52z"/>
	<path class="st0" d="M73.04,69.5c0.07-0.01,0.14-0.01,0.21-0.01c1.72,0,3.37,2,3.67,4.51c0.15,1.35-0.09,2.64-0.67,3.64
		c-0.52,0.9-1.27,1.44-2.08,1.51c-1.78,0.18-3.56-1.9-3.87-4.51C70,72.02,71.26,69.67,73.04,69.5z"/>
	<path class="st0" d="M80.03,74.01c0.3-2.61,2.03-4.68,3.73-4.51c1.71,0.16,2.93,2.52,2.65,5.13c-0.3,2.62-2.02,4.7-3.73,4.52
		c-0.73-0.07-1.26-0.52-1.58-0.9C80.25,77.26,79.85,75.67,80.03,74.01z"/>
	<path class="st0" d="M31.8,11.86c0.01,0.97,0.15,1.93,0.47,2.83c0.95,2.63,2.91,4.71,5.38,5.61c5.41,2,9.04,7.28,9.04,13.15
		l0.01,65.66c-0.01,1.84-1.51,3.34-3.38,3.34H5.87c-1.86,0-3.37-1.5-3.37-3.34V33.48c0-6.02,3.75-11.36,9.33-13.26
		c2.58-0.89,4.61-2.99,5.59-5.67c0.31-0.86,0.45-1.77,0.47-2.68"/>
	<line class="st0" x1="2.5" y1="37.54" x2="46.71" y2="37.54"/>
	<line class="st0" x1="46.71" y1="75.87" x2="2.5" y2="75.87"/>
	<path class="st0" d="M34.9,4.35v5.71c0,1-0.81,1.8-1.8,1.8h-16.5c-1,0-1.8-0.81-1.8-1.8V4.35c0-1,0.81-1.8,1.8-1.8h16.5
		C34.09,2.55,34.9,3.35,34.9,4.35z"/>
</g>
</svg>
