<?xml version="1.0" encoding="utf-8"?>
<!-- Generator: Adobe Illustrator 23.0.1, SVG Export Plug-In . SVG Version: 6.00 Build 0)  -->
<svg version="1.1" id="Layer_1" xmlns="http://www.w3.org/2000/svg" xmlns:xlink="http://www.w3.org/1999/xlink" x="0px" y="0px"
	 viewBox="0 0 105 105" style="enable-background:new 0 0 105 105;" xml:space="preserve">
<style type="text/css">
	.st0{fill:none;stroke:#000000;stroke-width:2;stroke-linecap:round;stroke-linejoin:round;stroke-miterlimit:10;}
</style>
<g>
	<path class="st0" d="M79.09,20.96c-1.91,0-3.47,1.55-3.47,3.47s1.55,3.47,3.47,3.47s3.47-1.55,3.47-3.47S81,20.96,79.09,20.96z"/>
	<path class="st0" d="M44.84,34.13v-2.93c0-2.41,0.94-4.67,2.64-6.37l8.71-8.71l0.07-0.07c1.84-1.84,4.26-2.9,6.84-3.05
		c0.1,31.38-7.66,32.11-7.77,32.11c-0.53,0-1.08-0.04-1.61-0.12C48.99,44.3,44.84,39.22,44.84,34.13z M2.55,91.7
		c0-2.59,1.74-3.91,5.19-3.91l11.11-0.13c0.7,0.18,6.14,1.88,8.32,9.58L7.74,97.25C4.88,97.25,2.55,94.76,2.55,91.7z M98.83,34.29
		c-0.28,0.45-0.52,0.83-0.68,1.09c-1.97,3.28-6.86,6.05-10.7,6.05H75.63v8.54l0.27,0.2c5.48,4.14,8.06,10.65,6.91,17.41
		c-0.85,4.97-3.9,9.39-8.36,12.13l-0.28,0.17l-0.95,7.61l0.67,0.08c3.24,0.41,6.14,2.32,7.78,5.12c0.54,0.93,0.54,2.05,0,3
		c-0.56,0.97-1.56,1.56-2.68,1.56H65.14c-1.68,0-3.05-1.36-3.05-3.05V82.36h-4.95c-0.49,0-2.43,0-2.84,0.08
		c2.09-3.51,4.69-9.81,0.09-15.5l0,0c6.21,7.58-0.86,16.71-1.17,17.09l0,0c-0.66,0.77-1.13,1.73-1.61,2.71l-0.63,1.26l0.66,0.28
		c2.12,0.92,3.91,2.54,5.02,4.57c0.49,0.89,0.47,1.93-0.07,2.84c-0.57,0.97-1.57,1.55-2.68,1.55H27.17
		c-2.05-7.27-6.94-9.18-8.32-9.58c-1.27-3.1-1.41-6.84-1.41-8.35c0-4.52,2.03-9.36,5.3-12.63c3.49-3.47,29.42-18.99,31.45-20.2
		c0.43-0.05,1.41-0.31,2.57-1.45c2.94-2.9,6.4-10.82,6.32-32.02h12.3c2.8,0,5.43,1.09,7.42,3.07l4.62,4.62
		c3.51,3.51,7.21,3.49,11.13,3.47h0.93c1.87,0,3.04,1.57,3.05,3.03C102.56,28.4,99.95,32.53,98.83,34.29z"/>
</g>
</svg>
