<?xml version="1.0" encoding="utf-8"?>
<!-- Generator: Adobe Illustrator 23.0.1, SVG Export Plug-In . SVG Version: 6.00 Build 0)  -->
<svg version="1.1" id="Layer_1" xmlns="http://www.w3.org/2000/svg" xmlns:xlink="http://www.w3.org/1999/xlink" x="0px" y="0px"
	 viewBox="0 0 100 100" style="enable-background:new 0 0 100 100;" xml:space="preserve">
<style type="text/css">
	.st0{fill:none;stroke:#000000;stroke-width:2;stroke-linecap:round;stroke-linejoin:round;stroke-miterlimit:10;}
</style>
<g>
	<path class="st0" d="M8.63,73.59l0.04,0.04c0.62,0.73,8.59,10.14,8.59,14.71c0,4.76-3.86,8.63-8.63,8.63S0,93.11,0,88.35
		c0-4.41,7.38-13.28,8.49-14.6c0.03-0.03,0.05-0.06,0.07-0.08L8.63,73.59L8.63,73.59l0-40.32c0-9.19,7.45-16.64,16.64-16.64h0
		c9.19,0,16.64,7.45,16.64,16.64v29.09c0,9.28,7.52,16.8,16.8,16.8h0c9.28,0,16.8-7.52,16.8-16.8V48.55"/>
	<path class="st0" d="M100,18.99c0,2.43-0.84,4.74-2.33,6.81c-3.92,5.41-12.36,9.16-22.14,9.16c-9.78,0-18.22-3.74-22.14-9.16
		c-1.49-2.06-2.33-4.37-2.33-6.81c0-8.81,10.95-15.96,24.46-15.96C89.05,3.03,100,10.17,100,18.99z"/>
	<path class="st0" d="M51.07,18.99l0,13.61c0,8.82,10.95,15.96,24.46,15.96c13.51,0,24.46-7.15,24.46-15.96c0,0,0-13.61,0-13.61
		c0,2.43-0.84,4.74-2.33,6.81l0,0c-3.91-5.41-12.35-9.16-22.14-9.16c-9.78,0-18.22,3.75-22.14,9.16
		C51.91,23.73,51.07,21.42,51.07,18.99"/>
	<path class="st0" d="M91.51,13.45c0,1.09-0.89,1.98-1.98,1.98c-1.09,0-1.98-0.89-1.98-1.98c0-1.09,0.89-1.98,1.98-1.98
		C90.62,11.47,91.51,12.36,91.51,13.45z"/>
	<path class="st0" d="M77.14,9.45c0,1.09-0.89,1.98-1.98,1.98c-1.09,0-1.98-0.89-1.98-1.98c0-1.09,0.89-1.98,1.98-1.98
		C76.25,7.47,77.14,8.36,77.14,9.45z"/>
	<path class="st0" d="M62.71,13.24c0,1.09-0.89,1.98-1.98,1.98c-1.09,0-1.98-0.89-1.98-1.98c0-1.09,0.89-1.98,1.98-1.98
		C61.82,11.26,62.71,12.15,62.71,13.24z"/>
	<path class="st0" d="M62.71,38.11c0,1.09-0.89,1.98-1.98,1.98c-1.09,0-1.98-0.89-1.98-1.98c0-1.09,0.89-1.98,1.98-1.98
		C61.82,36.13,62.71,37.02,62.71,38.11z"/>
	<path class="st0" d="M77.07,42.11c0,1.09-0.89,1.98-1.98,1.98c-1.09,0-1.98-0.89-1.98-1.98c0-1.09,0.89-1.98,1.98-1.98
		C76.18,40.13,77.07,41.02,77.07,42.11z"/>
	<path class="st0" d="M91.51,38.39c0,1.09-0.89,1.98-1.98,1.98c-1.09,0-1.98-0.89-1.98-1.98c0-1.09,0.89-1.98,1.98-1.98
		C90.62,36.42,91.51,37.3,91.51,38.39z"/>
</g>
</svg>
