<?xml version="1.0" encoding="utf-8"?>
<!-- Generator: Adobe Illustrator 23.0.1, SVG Export Plug-In . SVG Version: 6.00 Build 0)  -->
<svg version="1.1" id="Layer_1" xmlns="http://www.w3.org/2000/svg" xmlns:xlink="http://www.w3.org/1999/xlink" x="0px" y="0px"
	 viewBox="0 0 105 105" style="enable-background:new 0 0 105 105;" xml:space="preserve">
<style type="text/css">
	.st0{fill:none;stroke:#000000;stroke-width:2;stroke-linecap:round;stroke-linejoin:round;stroke-miterlimit:10;}
</style>
<g>
	<polygon class="st0" points="66.92,64.61 66.92,75.52 57.39,75.52 57.39,85.04 46.49,85.04 46.49,75.52 36.96,75.52 36.96,64.61 
		46.49,64.61 46.49,55.08 57.39,55.08 57.39,64.61 	"/>
	<path class="st0" d="M75.76,78.07c-3.32,9.65-12.48,16.58-23.26,16.58c-13.58,0-24.59-11.01-24.59-24.59
		c0-13.58,11.01-24.59,24.59-24.59"/>
	<path class="st0" d="M85.55,70.06c0,18.25-14.79,33.05-33.05,33.05S19.45,88.31,19.45,70.06c0-18.24,14.79-33.04,33.05-33.04
		S85.55,51.81,85.55,70.06z"/>
	<ellipse transform="matrix(0.7071 -0.7071 0.7071 0.7071 0.2055 75.899)" class="st0" cx="91.72" cy="37.7" rx="10.5" ry="10.5"/>
	
		<ellipse transform="matrix(0.7071 -0.7071 0.7071 0.7071 -22.8591 20.4693)" class="st0" cx="13.28" cy="37.83" rx="10.5" ry="10.5"/>
	
		<ellipse transform="matrix(0.7071 -0.7071 0.7071 0.7071 -0.5599 30.0651)" class="st0" cx="36.01" cy="15.71" rx="12.51" ry="12.51"/>
	
		<ellipse transform="matrix(0.7071 -0.7071 0.7071 0.7071 9.0538 53.2744)" class="st0" cx="68.83" cy="15.71" rx="12.61" ry="12.61"/>
</g>
</svg>
