<?xml version="1.0" encoding="utf-8"?>
<!-- Generator: Adobe Illustrator 23.0.1, SVG Export Plug-In . SVG Version: 6.00 Build 0)  -->
<svg version="1.1" id="Layer_1" xmlns="http://www.w3.org/2000/svg" xmlns:xlink="http://www.w3.org/1999/xlink" x="0px" y="0px"
	 viewBox="0 0 74 74" style="enable-background:new 0 0 74 74;" xml:space="preserve">
<style type="text/css">
	.st0{fill:none;stroke:#000000;stroke-width:2;stroke-linecap:round;stroke-linejoin:round;stroke-miterlimit:10;}
</style>
<g>
	<g>
		<path class="st0" d="M30.17,10.04l6.32-4.87c0.3-0.23,0.72-0.23,1.02,0l6.32,4.87"/>
		<polyline class="st0" points="17.6,36.09 17.6,19.73 17.6,10.04 30.17,10.04 43.83,10.04 56.61,10.04 56.61,19.91 56.61,36.18 		
			"/>
		<line class="st0" x1="46.75" y1="28.28" x2="28.16" y2="28.28"/>
		<g>
			<line class="st0" x1="28.16" y1="19.67" x2="46.75" y2="19.67"/>
			<line class="st0" x1="46.75" y1="36.88" x2="28.16" y2="36.88"/>
		</g>
		<path class="st0" d="M67.62,28.39l-11.01,7.79l-11.7,8.27l-4.21,2.98l-2.4,1.69c-0.51,0.36-1.19,0.36-1.71,0.01l-2.93-2
			l-3.88-2.68L17.6,36.09l-11.22-7.7V69h61.24V28.39z"/>
		<path class="st0" d="M67.62,69L40.7,47.43l-2.4,1.69c-0.51,0.36-1.19,0.36-1.71,0.01l-2.93-2L6.38,69"/>
	</g>
	<line class="st0" x1="56.61" y1="19.91" x2="67.62" y2="28.39"/>
	<line class="st0" x1="17.6" y1="19.73" x2="6.38" y2="28.39"/>
</g>
</svg>
