<?xml version="1.0" encoding="utf-8"?>
<!-- Generator: Adobe Illustrator 23.0.1, SVG Export Plug-In . SVG Version: 6.00 Build 0)  -->
<svg version="1.1" id="Layer_1" xmlns="http://www.w3.org/2000/svg" xmlns:xlink="http://www.w3.org/1999/xlink" x="0px" y="0px"
	 viewBox="0 0 74 74" style="enable-background:new 0 0 74 74;" xml:space="preserve">
<style type="text/css">
	.st0{fill:none;stroke:#000000;stroke-width:2;stroke-linecap:round;stroke-linejoin:round;stroke-miterlimit:10;}
</style>
<g>
	<path class="st0" d="M68.97,58.5c0.36,3.74-2.44,7.06-6.19,7.29c-12.4,0.78-26.07-3.45-37.62-12.72
		C14.33,44.37,7.48,30.36,5.1,18.13c-0.6-3.08,1.48-6.03,4.58-6.43l8.82-1.15c4.06-0.53,6.72,1.48,7.17,4.38l1.89,12.36
		c0.2,1.31-0.16,2.64-0.99,3.67l0,0c-1.5,1.87-1.39,4.56,0.25,6.31c1.93,2.06,4.04,4.01,6.32,5.85c2.79,2.24,5.69,4.18,8.68,5.83
		l2.05,0.79l2.83-3.69c0.94-1.22,2.37-1.97,3.91-2.05l10.53-0.51c3.55-0.17,6.6,2.47,6.94,6.01L68.97,58.5z"/>
	<g>
		<path class="st0" d="M20.09,16.85l-7.93,1c-0.33,3.2,0.6,6.54,2.8,10.01"/>
	</g>
	<g>
		<path class="st0" d="M61.5,51.56l0.44,7.85c-2.76,0.95-6.11,0.7-9.9-0.41"/>
	</g>
	<path class="st0" d="M41.66,8.44c4.84-1.05,10.79,0.42,15.78,4.43c5.45,4.38,8.23,10.52,7.69,15.83"/>
	<path class="st0" d="M42.26,15.08c3.9-0.74,8.14,0.23,11.53,2.96c3.67,2.95,5.52,7.28,5.35,11.51"/>
	<path class="st0" d="M42.71,20.43c2.72-0.36,5.45,0.27,7.57,1.98c2.36,1.89,3.58,4.77,3.62,7.89"/>
</g>
</svg>
