<?xml version="1.0" encoding="utf-8"?>
<!-- Generator: Adobe Illustrator 24.1.2, SVG Export Plug-In . SVG Version: 6.00 Build 0) -->
<svg version="1.1" id="Layer_1" xmlns="http://www.w3.org/2000/svg" xmlns:xlink="http://www.w3.org/1999/xlink" x="0px" y="0px" viewBox="0 0 75 75" style="enable-background:new 0 0 75 75;" xml:space="preserve">
	<style type="text/css">
		.st0{fill:none;stroke:#000000;stroke-width:2;stroke-linecap:round;stroke-linejoin:round;stroke-miterlimit:10;}
	</style>
	<g>
		<circle fill="none" stroke="#000" stroke-width="2" stroke-miterlimit="10" class="st0" cx="26.78" cy="13.19" r="8.19" />
		<circle fill="none" stroke="#000" stroke-width="2" stroke-miterlimit="10" class="st0" cx="48.12" cy="13.19" r="8.19" />
		<circle fill="none" stroke="#000" stroke-width="2" stroke-miterlimit="10" class="st0" cx="63" cy="27.49" r="6.77" />
		<circle fill="none" stroke="#000" stroke-width="2" stroke-miterlimit="10" class="st0" cx="12" cy="27.49" r="6.77" />
		<circle fill="none" stroke="#000" stroke-width="2" stroke-miterlimit="10" class="st0" cx="37.5" cy="48.57" r="21.43" />
		<path fill="none" stroke="#000" stroke-width="2" stroke-miterlimit="10" class="st0" d="M52.49,53.96C50.28,60.1,44.4,64.49,37.5,64.49c-8.79,0-15.92-7.13-15.92-15.92c0-8.79,7.13-15.92,15.92-15.92
		" />
		<path fill="none" stroke="#000" stroke-width="2" stroke-miterlimit="10" class="st0" d="M53.42,48.57" />
		<polygon fill="none" stroke="#000" stroke-width="2" stroke-miterlimit="10" class="st0" points="46.87,45.02 46.87,52.12 40.66,52.12 40.66,58.33 33.57,58.33 33.57,52.12 27.36,52.12 27.36,45.02 
		33.57,45.02 33.57,38.81 40.66,38.81 40.66,45.02 	" />
	</g>
</svg>
