<?xml version='1.0' encoding='utf-8'?>
<!DOCTYPE svg PUBLIC '-//W3C//DTD SVG 1.1//EN' 'http://www.w3.org/Graphics/SVG/1.1/DTD/svg11.dtd'>
<svg version="1.1" xmlns="http://www.w3.org/2000/svg" viewBox="0 0 512 512" xmlns:xlink="http://www.w3.org/1999/xlink" enable-background="new 0 0 512 512">
  <g>
    <g>
      <path d="M380,347.8l-17.3-91.5c-0.8-4-2.7-7.7-5.6-10.6L197.6,87.2c0,0,29-20.8,10.5-39.2c-18.1-18.1-39.4,10.5-39.4,10.5l0,0    L48.9,177.7c-8,7.9-8,20.8,0,28.7c4,4,16.6,10.9,28.9,0l9.9-9.8l159.5,158.6c2.8,2.8,6.3,4.7,10.1,5.5l88.9,19    c3.5,0.9,17.8,4,27.4-5.5C380.1,367.5,382.4,358.6,380,347.8z"/>
      <path d="m484.4,404.6c-11.7-11.6-39.1-20.9-81.3-27.5-7.3-1.2-14.8,1.3-20.1,6.5-5.2,5.2-7.7,12.7-6.6,20 6.7,42 15.9,69.3 27.6,80.9 11.1,11 25.6,16.5 40.2,16.5s29.1-5.5 40.2-16.5c22.1-22 22.1-57.9 5.68434e-14-79.9z"/>
      <path d="M123.6,46l-19.1-19C83.1,5.7,48.4,5.7,27,26.9c-21.3,21.2-21.3,55.8,0,77l19.1,19L123.6,46z"/>
    </g>
  </g>
</svg>
